<?xml version="1.0" encoding="UTF-8"?>
<svg version="1.1" xmlns="http://www.w3.org/2000/svg" width="1024" height="1024">
<path d="M0 0 C337.92 0 675.84 0 1024 0 C1024 337.92 1024 675.84 1024 1024 C686.08 1024 348.16 1024 0 1024 C0 686.08 0 348.16 0 0 Z " fill="#B9EAD4" transform="translate(0,0)"/>
<path d="M0 0 C14.19 0 28.38 0 43 0 C43 4.95 43 9.9 43 15 C50.59 15 58.18 15 66 15 C66 20.61 66 26.22 66 32 C76.56 32 87.12 32 98 32 C98 37.28 98 42.56 98 48 C108.56 48 119.12 48 130 48 C130 52.95 130 57.9 130 63 C140.89 63 151.78 63 163 63 C163 68.61 163 74.22 163 80 C173.56 80 184.12 80 195 80 C195 152.27 195 224.54 195 299 C184.11 299 173.22 299 162 299 C162 304.28 162 309.56 162 315 C151.44 315 140.88 315 130 315 C130 320.28 130 325.56 130 331 C119.11 331 108.22 331 97 331 C97 336.61 97 342.22 97 348 C86.11 348 75.22 348 64 348 C64 352.95 64 357.9 64 363 C54.76 363 45.52 363 36 363 C36 368.61 36 374.22 36 380 C27.42 380 18.84 380 10 380 C10 374.72 10 369.44 10 364 C-0.89 364 -11.78 364 -23 364 C-23 358.72 -23 353.44 -23 348 C-33.56 348 -44.12 348 -55 348 C-55 342.72 -55 337.44 -55 332 C-65.23 332 -75.46 332 -86 332 C-86 326.39 -86 320.78 -86 315 C-97.22 315 -108.44 315 -120 315 C-120 310.05 -120 305.1 -120 300 C-121.815 300.020625 -123.63 300.04125 -125.5 300.0625 C-133.34106342 299.9971578 -141.17393471 299.48912908 -149 299 C-149 226.73 -149 154.46 -149 80 C-139.43 80 -129.86 80 -120 80 C-120 74.39 -120 68.78 -120 63 C-108.12 63 -96.24 63 -84 63 C-84 57.72 -84 52.44 -84 47 C-74.76 47 -65.52 47 -56 47 C-56 42.05 -56 37.1 -56 32 C-44.12 32 -32.24 32 -20 32 C-20 26.72 -20 21.44 -20 16 C-13.4 16 -6.8 16 0 16 C0 10.72 0 5.44 0 0 Z " fill="#57C8B7" transform="translate(494,219)"/>
<path d="M0 0 C14.19 0 28.38 0 43 0 C43 4.95 43 9.9 43 15 C50.59 15 58.18 15 66 15 C66 20.61 66 26.22 66 32 C76.56 32 87.12 32 98 32 C98 37.28 98 42.56 98 48 C108.56 48 119.12 48 130 48 C130 52.95 130 57.9 130 63 C140.89 63 151.78 63 163 63 C163 68.61 163 74.22 163 80 C173.56 80 184.12 80 195 80 C195 152.27 195 224.54 195 299 C184.11 299 173.22 299 162 299 C162 304.28 162 309.56 162 315 C151.44 315 140.88 315 130 315 C130 320.28 130 325.56 130 331 C119.11 331 108.22 331 97 331 C97 336.61 97 342.22 97 348 C86.11 348 75.22 348 64 348 C64 352.95 64 357.9 64 363 C54.76 363 45.52 363 36 363 C36 357.72 36 352.44 36 347 C45.24 347 54.48 347 64 347 C64 341.72 64 336.44 64 331 C74.56 331 85.12 331 96 331 C96 326.05 96 321.1 96 316 C106.89 316 117.78 316 129 316 C129 310.39 129 304.78 129 299 C139.56 299 150.12 299 161 299 C161 294.05 161 289.1 161 284 C166.61 284 172.22 284 178 284 C178 257.6 178 231.2 178 204 C172.39 204 166.78 204 161 204 C161 209.28 161 214.56 161 220 C150.77 220 140.54 220 130 220 C130 225.28 130 230.56 130 236 C123.4 236 116.8 236 110 236 C110 241.28 110 246.56 110 252 C99.77 252 89.54 252 79 252 C79 257.28 79 262.56 79 268 C68.44 268 57.88 268 47 268 C47 273.28 47 278.56 47 284 C34.79 284 22.58 284 10 284 C10 247.37 10 210.74 10 173 C15.28 173 20.56 173 26 173 C26 168.05 26 163.1 26 158 C36.23 158 46.46 158 57 158 C56.96121216 153.03582556 56.96121216 153.03582556 56.90991211 148.07177734 C56.88281753 140.96250943 57.48777037 134.17121478 58 127 C47.44 127 36.88 127 26 127 C26 122.05 26 117.1 26 112 C16.43 112 6.86 112 -3 112 C-3 106.72 -3 101.44 -3 96 C-13.56 96 -24.12 96 -35 96 C-35 90.72 -35 85.44 -35 80 C-41.27 80 -47.54 80 -54 80 C-54 69.77 -54 59.54 -54 49 C-43.11 49 -32.22 49 -21 49 C-21.020625 46.525 -21.04125 44.05 -21.0625 41.5 C-21.09681342 32.95763108 -20.6140362 24.51975232 -20 16 C-13.4 16 -6.8 16 0 16 C0 10.72 0 5.44 0 0 Z " fill="#FE8084" transform="translate(494,219)"/>
<path d="M0 0 C14.19 0 28.38 0 43 0 C43 4.95 43 9.9 43 15 C50.59 15 58.18 15 66 15 C66 20.61 66 26.22 66 32 C76.56 32 87.12 32 98 32 C98 37.28 98 42.56 98 48 C108.56 48 119.12 48 130 48 C130 52.95 130 57.9 130 63 C140.89 63 151.78 63 163 63 C163 73.89 163 84.78 163 96 C157.06 96 151.12 96 145 96 C145 101.28 145 106.56 145 112 C133.78 112 122.56 112 111 112 C111 116.95 111 121.9 111 127 C104.07 127 97.14 127 90 127 C90 131.95 90 136.9 90 142 C79.44 142 68.88 142 58 142 C58 147.61 58 153.22 58 159 C47.44 159 36.88 159 26 159 C26 158.67 26 158.34 26 158 C36.23 158 46.46 158 57 158 C56.96121216 153.03582556 56.96121216 153.03582556 56.90991211 148.07177734 C56.88281753 140.96250943 57.48777037 134.17121478 58 127 C47.44 127 36.88 127 26 127 C26 122.05 26 117.1 26 112 C16.43 112 6.86 112 -3 112 C-3 106.72 -3 101.44 -3 96 C-13.56 96 -24.12 96 -35 96 C-35 90.72 -35 85.44 -35 80 C-41.27 80 -47.54 80 -54 80 C-54 69.77 -54 59.54 -54 49 C-43.11 49 -32.22 49 -21 49 C-21.020625 46.525 -21.04125 44.05 -21.0625 41.5 C-21.09681342 32.95763108 -20.6140362 24.51975232 -20 16 C-13.4 16 -6.8 16 0 16 C0 10.72 0 5.44 0 0 Z " fill="#FEB86A" transform="translate(494,219)"/>
<path d="M0 0 C5.61 0 11.22 0 17 0 C17 26.4 17 52.8 17 80 C11.39 80 5.78 80 0 80 C0 84.95 0 89.9 0 95 C-10.56 95 -21.12 95 -32 95 C-32 100.61 -32 106.22 -32 112 C-42.89 112 -53.78 112 -65 112 C-65 116.95 -65 121.9 -65 127 C-75.56 127 -86.12 127 -97 127 C-97 132.28 -97 137.56 -97 143 C-106.24 143 -115.48 143 -125 143 C-125 148.28 -125 153.56 -125 159 C-133.58 159 -142.16 159 -151 159 C-151 132.93 -151 106.86 -151 80 C-138.79 80 -126.58 80 -114 80 C-114 74.72 -114 69.44 -114 64 C-103.44 64 -92.88 64 -82 64 C-82 58.72 -82 53.44 -82 48 C-71.77 48 -61.54 48 -51 48 C-51 42.72 -51 37.44 -51 32 C-44.4 32 -37.8 32 -31 32 C-31 26.72 -31 21.44 -31 16 C-20.77 16 -10.54 16 0 16 C0 10.72 0 5.44 0 0 Z " fill="#AAA0D5" transform="translate(655,423)"/>
<path d="M0 0 C11.55 0 23.1 0 35 0 C35 5.61 35 11.22 35 17 C24.11 17 13.22 17 2 17 C2 27.23 2 37.46 2 48 C8.27 48 14.54 48 21 48 C21 53.28 21 58.56 21 64 C31.56 64 42.12 64 53 64 C53 69.28 53 74.56 53 80 C62.57 80 72.14 80 82 80 C82 84.95 82 89.9 82 95 C92.56 95 103.12 95 114 95 C114 111.09567901 114 111.09567901 113.5 118.375 C113.335 120.89125 113.17 123.4075 113 126 C102.77 126 92.54 126 82 126 C82 130.95 82 135.9 82 141 C71.44 141 60.88 141 50 141 C50 136.38 50 131.76 50 127 C38.78 127 27.56 127 16 127 C16 121.39 16 115.78 16 110 C5.44 110 -5.12 110 -16 110 C-16 105.05 -16 100.1 -16 95 C-25.9 95 -35.8 95 -46 95 C-46 89.72 -46 84.44 -46 79 C-51.94 79 -57.88 79 -64 79 C-64 63.16 -64 47.32 -64 31 C-52.12 31 -40.24 31 -28 31 C-28 25.72 -28 20.44 -28 15 C-18.76 15 -9.52 15 0 15 C0 10.05 0 5.1 0 0 Z " fill="#8DE3BC" transform="translate(438,251)"/>
<path d="M0 0 C21.45 0 42.9 0 65 0 C65 4.62 65 9.24 65 14 C69.29 14 73.58 14 78 14 C78 22.25 78 30.5 78 39 C74.04 39 70.08 39 66 39 C66 44.28 66 49.56 66 55 C69.96 55 73.92 55 78 55 C78 63.91 78 72.82 78 82 C73.38 82 68.76 82 64 82 C64 86.62 64 91.24 64 96 C42.88 96 21.76 96 0 96 C0 64.32 0 32.64 0 0 Z " fill="#6A527D" transform="translate(431,631)"/>
<path d="M0 0 C10.56 0 21.12 0 32 0 C32 72.27 32 144.54 32 219 C21.11 219 10.22 219 -1 219 C-1 224.28 -1 229.56 -1 235 C-11.56 235 -22.12 235 -33 235 C-33 240.28 -33 245.56 -33 251 C-43.89 251 -54.78 251 -66 251 C-66 256.61 -66 262.22 -66 268 C-76.89 268 -87.78 268 -99 268 C-99 272.95 -99 277.9 -99 283 C-108.24 283 -117.48 283 -127 283 C-127 277.72 -127 272.44 -127 267 C-117.76 267 -108.52 267 -99 267 C-99 261.72 -99 256.44 -99 251 C-88.44 251 -77.88 251 -67 251 C-67 246.05 -67 241.1 -67 236 C-56.11 236 -45.22 236 -34 236 C-34 230.39 -34 224.78 -34 219 C-23.44 219 -12.88 219 -2 219 C-2 214.05 -2 209.1 -2 204 C3.61 204 9.22 204 15 204 C15 141.96 15 79.92 15 16 C10.05 16 5.1 16 0 16 C0 10.72 0 5.44 0 0 Z " fill="#6A547E" transform="translate(657,299)"/>
<path d="M0 0 C23.43 0 46.86 0 71 0 C71 6.6 71 13.2 71 20 C54.83 20 38.66 20 22 20 C22 25.94 22 31.88 22 38 C34.54 38 47.08 38 60 38 C60 44.93 60 51.86 60 59 C47.46 59 34.92 59 22 59 C22 64.61 22 70.22 22 76 C37.84 76 53.68 76 70 76 C70 82.6 70 89.2 70 96 C46.9 96 23.8 96 0 96 C0 64.32 0 32.64 0 0 Z " fill="#6A517D" transform="translate(618,631)"/>
<path d="M0 0 C9.57 0 19.14 0 29 0 C29 5.28 29 10.56 29 16 C25.04 16 21.08 16 17 16 C17 78.04 17 140.08 17 204 C20.96 204 24.92 204 29 204 C29 208.95 29 213.9 29 219 C39.89 219 50.78 219 62 219 C62 224.28 62 229.56 62 235 C51.11 235 40.22 235 29 235 C29 230.05 29 225.1 29 220 C27.185 220.020625 25.37 220.04125 23.5 220.0625 C15.65893658 219.9971578 7.82606529 219.48912908 0 219 C0 146.73 0 74.46 0 0 Z " fill="#6C5780" transform="translate(345,299)"/>
<path d="M0 0 C7.26 0 14.52 0 22 0 C22 25.08 22 50.16 22 76 C33.22 76 44.44 76 56 76 C56 50.92 56 25.84 56 0 C63.26 0 70.52 0 78 0 C78 26.73 78 53.46 78 81 C73.71 81 69.42 81 65 81 C65 85.95 65 90.9 65 96 C47.51 96 30.02 96 12 96 C12 91.38 12 86.76 12 82 C8.04 82 4.08 82 0 82 C0 54.94 0 27.88 0 0 Z " fill="#6A527D" transform="translate(333,631)"/>
<path d="M0 0 C17.16 0 34.32 0 52 0 C52 3.63 52 7.26 52 11 C55.96 11 59.92 11 64 11 C64 17.93 64 24.86 64 32 C61.03 32 58.06 32 55 32 C55 35.96 55 39.92 55 44 C57.97 44 60.94 44 64 44 C64 51.26 64 58.52 64 66 C60.37 66 56.74 66 53 66 C53 68.97 53 71.94 53 75 C35.51 75 18.02 75 0 75 C0 50.25 0 25.5 0 0 Z " fill="#6B537E" transform="translate(527,757)"/>
<path d="M0 0 C7.59 0 15.18 0 23 0 C23 6.6 23 13.2 23 20 C27.62 20 32.24 20 37 20 C37 24.95 37 29.9 37 35 C40.96 35 44.92 35 49 35 C49 30.05 49 25.1 49 20 C53.29 20 57.58 20 62 20 C62 13.4 62 6.8 62 0 C69.59 0 77.18 0 85 0 C85 7.26 85 14.52 85 22 C81.04 22 77.08 22 73 22 C73 26.95 73 31.9 73 37 C69.04 37 65.08 37 61 37 C61 43.93 61 50.86 61 58 C64.96 58 68.92 58 73 58 C73 63.61 73 69.22 73 75 C76.96 75 80.92 75 85 75 C85 81.93 85 88.86 85 96 C77.41 96 69.82 96 62 96 C62 89.4 62 82.8 62 76 C57.71 76 53.42 76 49 76 C49 70.06 49 64.12 49 58 C45.04 58 41.08 58 37 58 C37 63.94 37 69.88 37 76 C32.38 76 27.76 76 23 76 C23 82.6 23 89.2 23 96 C15.41 96 7.82 96 0 96 C0 89.07 0 82.14 0 75 C3.96 75 7.92 75 12 75 C12 69.39 12 63.78 12 58 C15.63 58 19.26 58 23 58 C23 51.07 23 44.14 23 37 C19.37 37 15.74 37 12 37 C12 32.05 12 27.1 12 22 C8.04 22 4.08 22 0 22 C0 14.74 0 7.48 0 0 Z " fill="#6A517C" transform="translate(707,631)"/>
<path d="M0 0 C15.51 0 31.02 0 47 0 C47 4.95 47 9.9 47 15 C51.62 15 56.24 15 61 15 C61 21.93 61 28.86 61 36 C53.74 36 46.48 36 39 36 C39 31.38 39 26.76 39 22 C28.11 22 17.22 22 6 22 C6 39.49 6 56.98 6 75 C16.89 75 27.78 75 39 75 C39 70.05 39 65.1 39 60 C46.26 60 53.52 60 61 60 C61 66.93 61 73.86 61 81 C56.71 81 52.42 81 48 81 C48 85.95 48 90.9 48 96 C32.16 96 16.32 96 0 96 C0 91.38 0 86.76 0 82 C-5.28 82 -10.56 82 -16 82 C-16 59.23 -16 36.46 -16 13 C-10.72 13 -5.44 13 0 13 C0 8.71 0 4.42 0 0 Z " fill="#6A527D" transform="translate(254,631)"/>
<path d="M0 0 C13.2 0 26.4 0 40 0 C40 3.63 40 7.26 40 11 C44.29 11 48.58 11 53 11 C53 32.12 53 53.24 53 75 C46.73 75 40.46 75 34 75 C34 67.41 34 59.82 34 52 C24.43 52 14.86 52 5 52 C5 59.59 5 67.18 5 75 C-1.27 75 -7.54 75 -14 75 C-14 53.88 -14 32.76 -14 11 C-9.38 11 -4.76 11 0 11 C0 7.37 0 3.74 0 0 Z " fill="#6C557F" transform="translate(449,757)"/>
<path d="M0 0 C7.26 0 14.52 0 22 0 C22 24.75 22 49.5 22 75 C37.51 75 53.02 75 69 75 C69 81.93 69 88.86 69 96 C46.23 96 23.46 96 0 96 C0 64.32 0 32.64 0 0 Z " fill="#6A527D" transform="translate(529,631)"/>
<path d="M0 0 C14.19 0 28.38 0 43 0 C43 4.95 43 9.9 43 15 C50.59 15 58.18 15 66 15 C66 20.61 66 26.22 66 32 C76.56 32 87.12 32 98 32 C98 37.28 98 42.56 98 48 C108.56 48 119.12 48 130 48 C130 52.95 130 57.9 130 63 C140.89 63 151.78 63 163 63 C163 68.61 163 74.22 163 80 C151.78 80 140.56 80 129 80 C129 74.72 129 69.44 129 64 C118.11 64 107.22 64 96 64 C96 58.72 96 53.44 96 48 C85.77 48 75.54 48 65 48 C65 42.72 65 37.44 65 32 C57.74 32 50.48 32 43 32 C43 27.05 43 22.1 43 17 C28.81 17 14.62 17 0 17 C0 21.95 0 26.9 0 32 C-6.6 32 -13.2 32 -20 32 C-20 26.72 -20 21.44 -20 16 C-13.4 16 -6.8 16 0 16 C0 10.72 0 5.44 0 0 Z " fill="#67507E" transform="translate(494,219)"/>
<path d="M0 0 C16.83 0 33.66 0 51 0 C51 5.61 51 11.22 51 17 C37.8 17 24.6 17 11 17 C11 21.62 11 26.24 11 31 C21.89 31 32.78 31 44 31 C44 34.96 44 38.92 44 43 C46.64 43 49.28 43 52 43 C52 49.6 52 56.2 52 63 C49.36 63 46.72 63 44 63 C44 66.96 44 70.92 44 75 C26.51 75 9.02 75 -9 75 C-9 69.39 -9 63.78 -9 58 C4.86 58 18.72 58 33 58 C33 54.04 33 50.08 33 46 C22.44 46 11.88 46 1 46 C1 42.04 1 38.08 1 34 C-2.63 34 -6.26 34 -10 34 C-10 27.4 -10 20.8 -10 14 C-6.7 14 -3.4 14 0 14 C0 9.38 0 4.76 0 0 Z " fill="#6A527D" transform="translate(622,757)"/>
<path d="M0 0 C6.6 0 13.2 0 20 0 C20 19.14 20 38.28 20 58 C34.19 58 48.38 58 63 58 C63 63.61 63 69.22 63 75 C42.21 75 21.42 75 0 75 C0 50.25 0 25.5 0 0 Z " fill="#6B537E" transform="translate(349,757)"/>
<path d="M0 0 C11.55 0 23.1 0 35 0 C35 5.61 35 11.22 35 17 C24.11 17 13.22 17 2 17 C2 21.95 2 26.9 2 32 C-7.9 32 -17.8 32 -28 32 C-28 37.28 -28 42.56 -28 48 C-39.88 48 -51.76 48 -64 48 C-64 42.39 -64 36.78 -64 31 C-52.12 31 -40.24 31 -28 31 C-28 25.72 -28 20.44 -28 15 C-18.76 15 -9.52 15 0 15 C0 10.05 0 5.1 0 0 Z " fill="#6D5780" transform="translate(438,251)"/>
<path d="M0 0 C10.56 0 21.12 0 32 0 C32 5.28 32 10.56 32 16 C42.23 16 52.46 16 63 16 C63 21.61 63 27.22 63 33 C52.44 33 41.88 33 31 33 C31 27.72 31 22.44 31 17 C20.77 17 10.54 17 0 17 C0 11.39 0 5.78 0 0 Z " fill="#6C547F" transform="translate(408,534)"/>
<path d="M0 0 C10.56 0 21.12 0 32 0 C32 4.95 32 9.9 32 15 C40.58 15 49.16 15 58 15 C58 20.61 58 26.22 58 32 C49.42 32 40.84 32 32 32 C32 26.72 32 21.44 32 16 C21.44 16 10.88 16 0 16 C0 10.72 0 5.44 0 0 Z " fill="#6D5780" transform="translate(472,567)"/>
<path d="M0 0 C9.24 0 18.48 0 28 0 C27.67 0.66 27.34 1.32 27 2 C14.13 1.505 14.13 1.505 1 1 C1 72.61 1 144.22 1 218 C9.25 218 17.5 218 26 218 C26.33 213.71 26.66 209.42 27 205 C23.7 205 20.4 205 17 205 C17 204.67 17 204.34 17 204 C20.96 204 24.92 204 29 204 C29 208.95 29 213.9 29 219 C39.89 219 50.78 219 62 219 C62 224.28 62 229.56 62 235 C51.11 235 40.22 235 29 235 C29 230.05 29 225.1 29 220 C27.185 220.020625 25.37 220.04125 23.5 220.0625 C15.65893658 219.9971578 7.82606529 219.48912908 0 219 C0 146.73 0 74.46 0 0 Z " fill="#644375" transform="translate(345,299)"/>
<path d="M0 0 C11.22 0 22.44 0 34 0 C34 6.27 34 12.54 34 19 C22.78 19 11.56 19 0 19 C0 12.73 0 6.46 0 0 Z " fill="#BBEBD6" transform="translate(452,688)"/>
<path d="M0 0 C11.22 0 22.44 0 34 0 C34 6.27 34 12.54 34 19 C22.78 19 11.56 19 0 19 C0 12.73 0 6.46 0 0 Z " fill="#BBEBD6" transform="translate(452,650)"/>
<path d="M0 0 C9.57 0 19.14 0 29 0 C29 5.94 29 11.88 29 18 C19.43 18 9.86 18 0 18 C0 12.06 0 6.12 0 0 Z " fill="#BCECD7" transform="translate(454,774)"/>
<path d="M0 0 C10.56 0 21.12 0 32 0 C32 4.95 32 9.9 32 15 C16.16 15.495 16.16 15.495 0 16 C0 10.72 0 5.44 0 0 Z " fill="#6D5781" transform="translate(440,252)"/>
<path d="M0 0 C10.89 0 21.78 0 33 0 C33 4.62 33 9.24 33 14 C22.11 14 11.22 14 0 14 C0 9.38 0 4.76 0 0 Z " fill="#6D5780" transform="translate(375,284)"/>
<path d="M0 0 C10.23 0 20.46 0 31 0 C31 4.62 31 9.24 31 14 C20.77 14 10.54 14 0 14 C0 9.38 0 4.76 0 0 Z " fill="#6E5781" transform="translate(592,268)"/>
<path d="M0 0 C9.24 0 18.48 0 28 0 C28 4.95 28 9.9 28 15 C18.76 15 9.52 15 0 15 C0 10.05 0 5.1 0 0 Z " fill="#684F7B" transform="translate(530,567)"/>
<path d="M0 0 C9.9 0 19.8 0 30 0 C30 4.62 30 9.24 30 14 C20.1 14 10.2 14 0 14 C0 9.38 0 4.76 0 0 Z " fill="#6D5780" transform="translate(624,519)"/>
<path d="M0 0 C10.56 0 21.12 0 32 0 C32 4.29 32 8.58 32 13 C21.44 13 10.88 13 0 13 C0 8.71 0 4.42 0 0 Z " fill="#6C557F" transform="translate(591,536)"/>
<path d="M0 0 C9.9 0 19.8 0 30 0 C30 4.29 30 8.58 30 13 C20.1 13 10.2 13 0 13 C0 8.71 0 4.42 0 0 Z " fill="#6E5780" transform="translate(561,252)"/>
<path d="M0 0 C8.25 0 16.5 0 25 0 C25 4.95 25 9.9 25 15 C16.75 15 8.5 15 0 15 C0 10.05 0 5.1 0 0 Z " fill="#BDEED8" transform="translate(545,773)"/>
<path d="M0 0 C11.55 0 23.1 0 35 0 C35 5.61 35 11.22 35 17 C24.44 17 13.88 17 3 17 C3 16.67 3 16.34 3 16 C13.23 16 23.46 16 34 16 C34 11.05 34 6.1 34 1 C23.44 1 12.88 1 2 1 C2 11.23 2 21.46 2 32 C-7.9 32 -17.8 32 -28 32 C-28 37.28 -28 42.56 -28 48 C-39.88 48 -51.76 48 -64 48 C-64 42.39 -64 36.78 -64 31 C-52.12 31 -40.24 31 -28 31 C-28 26.05 -28 21.1 -28 16 C-27.67 16 -27.34 16 -27 16 C-27 20.95 -27 25.9 -27 31 C-18.09 31 -9.18 31 0 31 C0 26.38 0 21.76 0 17 C-8.58 17 -17.16 17 -26 17 C-26 16.67 -26 16.34 -26 16 C-17.42 16 -8.84 16 0 16 C0 10.72 0 5.44 0 0 Z M-63 33 C-63 37.62 -63 42.24 -63 47 C-52.11 47 -41.22 47 -30 47 C-30 42.38 -30 37.76 -30 33 C-40.89 33 -51.78 33 -63 33 Z " fill="#5A3674" transform="translate(438,251)"/>
<path d="M0 0 C8.25 0 16.5 0 25 0 C25 4.62 25 9.24 25 14 C16.75 14 8.5 14 0 14 C0 9.38 0 4.76 0 0 Z " fill="#BEEDD8" transform="translate(545,803)"/>
<path d="M0 0 C6.6 0 13.2 0 20 0 C20 4.62 20 9.24 20 14 C13.4 14 6.8 14 0 14 C0 9.38 0 4.76 0 0 Z " fill="#6E5781" transform="translate(538,236)"/>
<path d="M0 0 C10.56 0 21.12 0 32 0 C32 4.95 32 9.9 32 15 C40.58 15 49.16 15 58 15 C58 20.61 58 26.22 58 32 C49.42 32 40.84 32 32 32 C32 26.72 32 21.44 32 16 C21.44 16 10.88 16 0 16 C0 10.72 0 5.44 0 0 Z M1 1 C1 5.29 1 9.58 1 14 C10.9 14 20.8 14 31 14 C31 9.71 31 5.42 31 1 C21.1 1 11.2 1 1 1 Z M34 17 C34 21.29 34 25.58 34 30 C41.26 30 48.52 30 56 30 C56 25.71 56 21.42 56 17 C48.74 17 41.48 17 34 17 Z " fill="#674675" transform="translate(472,567)"/>
<path d="M0 0 C13.2 0 26.4 0 40 0 C40 3.3 40 6.6 40 10 C39.67 10 39.34 10 39 10 C39 7.03 39 4.06 39 1 C26.46 1 13.92 1 1 1 C1 4.96 1 8.92 1 13 C-3.29 13 -7.58 13 -12 13 C-12 32.8 -12 52.6 -12 73 C-6.72 73 -1.44 73 4 73 C4 66.4 4 59.8 4 53 C4.33 53 4.66 53 5 53 C5 60.26 5 67.52 5 75 C-1.27 75 -7.54 75 -14 75 C-14 53.88 -14 32.76 -14 11 C-9.38 11 -4.76 11 0 11 C0 7.37 0 3.74 0 0 Z " fill="#5E3A6F" transform="translate(449,757)"/>
<path d="M0 0 C6.27 0.33 12.54 0.66 19 1 C19 5.62 19 10.24 19 15 C12.73 15 6.46 15 0 15 C0 10.05 0 5.1 0 0 Z " fill="#6D5680" transform="translate(474,235)"/>
<path d="M0 0 C2.64 0 5.28 0 8 0 C8 6.6 8 13.2 8 20 C5.36 20 2.72 20 0 20 C0 23.96 0 27.92 0 32 C-17.49 32 -34.98 32 -53 32 C-53 26.39 -53 20.78 -53 15 C-39.14 15 -25.28 15 -11 15 C-11 15.33 -11 15.66 -11 16 C-24.53 16 -38.06 16 -52 16 C-52 20.95 -52 25.9 -52 31 C-51.34 30.67 -50.68 30.34 -50 30 C-48.45772144 29.91008908 -46.91159105 29.88243039 -45.36669922 29.88647461 C-44.40585419 29.88655014 -43.44500916 29.88662567 -42.45504761 29.88670349 C-41.41542877 29.89186478 -40.37580994 29.89702606 -39.3046875 29.90234375 C-38.24210724 29.9037587 -37.17952698 29.90517365 -36.08474731 29.90663147 C-32.68146991 29.91224166 -29.27825762 29.92479591 -25.875 29.9375 C-23.57161553 29.94251369 -21.26823003 29.94707682 -18.96484375 29.95117188 C-13.30987351 29.9622144 -7.65494141 29.97896248 -2 30 C-2.01160156 29.28972656 -2.02320313 28.57945312 -2.03515625 27.84765625 C-2.04417969 26.92855469 -2.05320312 26.00945313 -2.0625 25.0625 C-2.07410156 24.14597656 -2.08570313 23.22945312 -2.09765625 22.28515625 C-2 20 -2 20 -1 19 C1.64 19 4.28 19 7 19 C7 13.06 7 7.12 7 1 C4.69 1 2.38 1 0 1 C0 0.67 0 0.34 0 0 Z " fill="#5A336B" transform="translate(666,800)"/>
<path d="M0 0 C3.96 0 7.92 0 12 0 C12 21.12 12 42.24 12 64 C5.73 64 -0.54 64 -7 64 C-7 56.41 -7 48.82 -7 41 C-6.67 41 -6.34 41 -6 41 C-6 47.93 -6 54.86 -6 62 C-0.72 62 4.56 62 10 62 C10 41.87 10 21.74 10 1 C6.7 1 3.4 1 0 1 C0 0.67 0 0.34 0 0 Z " fill="#644575" transform="translate(490,768)"/>
<path d="M0 0 C0.33 0 0.66 0 1 0 C1 26.07 1 52.14 1 79 C-4.61 79 -10.22 79 -16 79 C-16 83.95 -16 88.9 -16 94 C-26.56 94 -37.12 94 -48 94 C-48 93.67 -48 93.34 -48 93 C-33.15 92.505 -33.15 92.505 -18 92 C-18 87.71 -18 83.42 -18 79 C-17.01 78.01 -17.01 78.01 -16 77 C-10.72 77 -5.44 77 0 77 C0 51.59 0 26.18 0 0 Z " fill="#BCB4EE" transform="translate(671,424)"/>
<path d="M0 0 C0.76166977 0.00222061 1.52333954 0.00444122 2.30809021 0.00672913 C3.16890701 0.00680466 4.02972382 0.00688019 4.91662598 0.00695801 C5.8520372 0.01211929 6.78744843 0.01728058 7.75120544 0.02259827 C8.70422043 0.02401321 9.65723541 0.02542816 10.63912964 0.02688599 C13.69605085 0.032503 16.75289996 0.04505836 19.80979919 0.05775452 C21.87685543 0.06276733 23.94391281 0.06733061 26.01097107 0.07142639 C31.08977507 0.08247795 36.16852489 0.09975397 41.24729919 0.12025452 C41.24729919 0.78025452 41.24729919 1.44025452 41.24729919 2.12025452 C27.38729919 2.12025452 13.52729919 2.12025452 -0.75270081 2.12025452 C-0.75270081 7.73025452 -0.75270081 13.34025452 -0.75270081 19.12025452 C16.73729919 19.12025452 34.22729919 19.12025452 52.24729919 19.12025452 C52.24729919 19.45025452 52.24729919 19.78025452 52.24729919 20.12025452 C34.42729919 20.12025452 16.60729919 20.12025452 -1.75270081 20.12025452 C-2.08270081 13.85025452 -2.41270081 7.58025452 -2.75270081 1.12025452 C-1.75270081 0.12025452 -1.75270081 0.12025452 0 0 Z " fill="#C4EFDE" transform="translate(613.7527008056641,812.8797454833984)"/>
<path d="M0 0 C1.39120471 0.00015906 2.78241534 0.00585033 4.17358398 0.01586914 C4.90463852 0.01728409 5.63569305 0.01869904 6.38890076 0.02015686 C8.73253406 0.02577131 11.07607313 0.03832617 13.41967773 0.05102539 C15.00496282 0.05603853 16.59024939 0.06060176 18.17553711 0.06469727 C22.06948316 0.07489618 25.9632245 0.09446852 29.85717773 0.11352539 C29.85717773 5.72352539 29.85717773 11.33352539 29.85717773 17.11352539 C18.63717773 17.11352539 7.41717773 17.11352539 -4.14282227 17.11352539 C-4.14282227 0.14964751 -4.14282227 0.14964751 0 0 Z M-2.14282227 2.11352539 C-2.14282227 6.73352539 -2.14282227 11.35352539 -2.14282227 16.11352539 C8.08717773 16.11352539 18.31717773 16.11352539 28.85717773 16.11352539 C28.85717773 11.49352539 28.85717773 6.87352539 28.85717773 2.11352539 C18.62717773 2.11352539 8.39717773 2.11352539 -2.14282227 2.11352539 Z " fill="#5B457D" transform="translate(627.142822265625,281.886474609375)"/>
<path d="M0 0 C11.88 0 23.76 0 36 0 C36 5.61 36 11.22 36 17 C24.12 17 12.24 17 0 17 C0 11.39 0 5.78 0 0 Z M1 2 C1 6.62 1 11.24 1 16 C11.89 16 22.78 16 34 16 C34 11.38 34 6.76 34 2 C23.11 2 12.22 2 1 2 Z " fill="#643D74" transform="translate(374,282)"/>
<path d="M0 0 C7.26 0 14.52 0 22 0 C22 6.93 22 13.86 22 21 C18.04 21 14.08 21 10 21 C9.67 20.34 9.34 19.68 9 19 C12.96 19 16.92 19 21 19 C21 13.39 21 7.78 21 2 C14.73 2 8.46 2 2 2 C2 6.29 2 10.58 2 15 C1.01 15.495 1.01 15.495 0 16 C0 10.72 0 5.44 0 0 Z " fill="#603C70" transform="translate(293,691)"/>
<path d="M0 0 C0.33 0 0.66 0 1 0 C1.495 4.455 1.495 4.455 2 9 C-15.16 9 -32.32 9 -50 9 C-50 8.34 -50 7.68 -50 7 C-33.5 7 -17 7 0 7 C0 4.69 0 2.38 0 0 Z " fill="#624274" transform="translate(578,823)"/>
<path d="M0 0 C0.33 0 0.66 0 1 0 C1 6.6 1 13.2 1 20 C4.63 20 8.26 20 12 20 C12 23.96 12 27.92 12 32 C22.56 32 33.12 32 44 32 C44 32.33 44 32.66 44 33 C39.31860746 33.02465288 34.63725241 33.04283739 29.95581055 33.05493164 C28.36205386 33.05997157 26.76830181 33.0668035 25.17456055 33.07543945 C22.88849747 33.08751999 20.60249533 33.09323155 18.31640625 33.09765625 C17.59973282 33.10281754 16.88305939 33.10797882 16.14466858 33.11329651 C14.42936328 33.11349263 12.71418734 33.06192007 11 33 C10 32 10 32 9.90234375 29.71484375 C9.91394531 28.79832031 9.92554688 27.88179687 9.9375 26.9375 C9.94652344 26.01839844 9.95554687 25.09929688 9.96484375 24.15234375 C9.97644531 23.44207031 9.98804688 22.73179687 10 22 C9.36191406 22.01160156 8.72382812 22.02320313 8.06640625 22.03515625 C6.82697266 22.04869141 6.82697266 22.04869141 5.5625 22.0625 C4.32693359 22.07990234 4.32693359 22.07990234 3.06640625 22.09765625 C1 22 1 22 0 21 C-0.08685603 19.43827255 -0.10702219 17.87270656 -0.09765625 16.30859375 C-0.09443359 15.36435547 -0.09121094 14.42011719 -0.08789062 13.44726562 C-0.07951172 12.45404297 -0.07113281 11.46082031 -0.0625 10.4375 C-0.05798828 9.44041016 -0.05347656 8.44332031 -0.04882812 7.41601562 C-0.03700007 4.94395151 -0.02051849 2.47200482 0 0 Z " fill="#CAF7E5" transform="translate(611,771)"/>
<path d="M0 0 C1.58206057 0.00667536 3.16410534 0.0186375 4.74609375 0.03515625 C5.55240234 0.03966797 6.35871094 0.04417969 7.18945312 0.04882812 C9.18753131 0.06065107 11.18557158 0.07858711 13.18359375 0.09765625 C13.18359375 0.42765625 13.18359375 0.75765625 13.18359375 1.09765625 C7.90359375 1.09765625 2.62359375 1.09765625 -2.81640625 1.09765625 C-2.81640625 6.04765625 -2.81640625 10.99765625 -2.81640625 16.09765625 C-13.37640625 16.09765625 -23.93640625 16.09765625 -34.81640625 16.09765625 C-34.81640625 15.76765625 -34.81640625 15.43765625 -34.81640625 15.09765625 C-19.96640625 14.60265625 -19.96640625 14.60265625 -4.81640625 14.09765625 C-4.81640625 9.80765625 -4.81640625 5.51765625 -4.81640625 1.09765625 C-3.81640625 0.09765625 -3.81640625 0.09765625 0 0 Z " fill="#B3AAE2" transform="translate(657.81640625,501.90234375)"/>
<path d="M0 0 C0.33 0 0.66 0 1 0 C1 5.28 1 10.56 1 16 C-2.63 15.67 -6.26 15.34 -10 15 C-10 14.67 -10 14.34 -10 14 C-5.545 13.505 -5.545 13.505 -1 13 C-0.67 8.71 -0.34 4.42 0 0 Z " fill="#FD8C7D" transform="translate(572,471)"/>
</svg>
